<mxfile host="app.diagrams.net" modified="2023-11-23T04:16:42.227Z" agent="Mozilla/5.0 (Windows NT 10.0; Win64; x64) AppleWebKit/537.36 (KHTML, like Gecko) Chrome/119.0.0.0 Safari/537.36" etag="Wigu1P1VIGf6bNHXHyVB" version="22.1.3" type="github">
  <diagram name="Page-1" id="r8mbdwAtOHCK5GiDy4ch">
    <mxGraphModel dx="1880" dy="1473" grid="0" gridSize="10" guides="1" tooltips="1" connect="1" arrows="1" fold="1" page="0" pageScale="1" pageWidth="827" pageHeight="1169" math="0" shadow="0">
      <root>
        <mxCell id="0" />
        <mxCell id="1" parent="0" />
        <mxCell id="qK7Ihf6GJC0ydESjj7_p-162" style="edgeStyle=orthogonalEdgeStyle;rounded=0;orthogonalLoop=1;jettySize=auto;html=1;" edge="1" parent="1" source="qK7Ihf6GJC0ydESjj7_p-80">
          <mxGeometry relative="1" as="geometry">
            <mxPoint x="745.8421566611842" y="749.210539165296" as="targetPoint" />
          </mxGeometry>
        </mxCell>
        <mxCell id="qK7Ihf6GJC0ydESjj7_p-80" value="" style="rounded=0;whiteSpace=wrap;html=1;fillColor=#dae8fc;strokeColor=#6c8ebf;" vertex="1" parent="1">
          <mxGeometry x="48" y="433" width="632" height="367" as="geometry" />
        </mxCell>
        <mxCell id="qK7Ihf6GJC0ydESjj7_p-19" value="Batch data&lt;br&gt;(&lt;b&gt;S3,&amp;nbsp;Redshift &lt;/b&gt;etc..)" style="shape=process;whiteSpace=wrap;html=1;backgroundOutline=1;" vertex="1" parent="1">
          <mxGeometry x="52" y="164" width="150" height="60" as="geometry" />
        </mxCell>
        <mxCell id="qK7Ihf6GJC0ydESjj7_p-20" value="Streaming data (Kafka, &lt;b&gt;Kinesis&lt;/b&gt;,&lt;br&gt;etc..)" style="shape=process;whiteSpace=wrap;html=1;backgroundOutline=1;" vertex="1" parent="1">
          <mxGeometry x="536" y="164" width="150" height="60" as="geometry" />
        </mxCell>
        <mxCell id="qK7Ihf6GJC0ydESjj7_p-24" style="edgeStyle=orthogonalEdgeStyle;rounded=0;orthogonalLoop=1;jettySize=auto;html=1;entryX=0;entryY=0.5;entryDx=0;entryDy=0;" edge="1" parent="1" source="qK7Ihf6GJC0ydESjj7_p-21" target="qK7Ihf6GJC0ydESjj7_p-20">
          <mxGeometry relative="1" as="geometry" />
        </mxCell>
        <mxCell id="qK7Ihf6GJC0ydESjj7_p-21" value="Publishing Services" style="shape=cube;whiteSpace=wrap;html=1;boundedLbl=1;backgroundOutline=1;darkOpacity=0.05;darkOpacity2=0.1;size=3;" vertex="1" parent="1">
          <mxGeometry x="394.75" y="160.5" width="100.5" height="67" as="geometry" />
        </mxCell>
        <mxCell id="qK7Ihf6GJC0ydESjj7_p-43" style="edgeStyle=orthogonalEdgeStyle;rounded=0;orthogonalLoop=1;jettySize=auto;html=1;exitX=0.5;exitY=0;exitDx=0;exitDy=0;exitPerimeter=0;entryX=0.5;entryY=1;entryDx=0;entryDy=0;dashed=1;startArrow=classic;startFill=1;endArrow=classic;endFill=1;" edge="1" parent="1" source="qK7Ihf6GJC0ydESjj7_p-31" target="qK7Ihf6GJC0ydESjj7_p-42">
          <mxGeometry relative="1" as="geometry" />
        </mxCell>
        <mxCell id="qK7Ihf6GJC0ydESjj7_p-31" value="Registry&lt;br&gt;(Postgres)" style="shape=cylinder3;whiteSpace=wrap;html=1;boundedLbl=1;backgroundOutline=1;size=15;" vertex="1" parent="1">
          <mxGeometry x="320" y="519" width="80" height="100" as="geometry" />
        </mxCell>
        <mxCell id="qK7Ihf6GJC0ydESjj7_p-42" value="Job Service&lt;br&gt;(&lt;b&gt;Airflow&lt;/b&gt;, &lt;br&gt;Prefect etc..)" style="shape=process;whiteSpace=wrap;html=1;backgroundOutline=1;" vertex="1" parent="1">
          <mxGeometry x="285" y="319" width="150" height="60" as="geometry" />
        </mxCell>
        <mxCell id="qK7Ihf6GJC0ydESjj7_p-44" value="Online store&lt;br style=&quot;border-color: var(--border-color);&quot;&gt;(&lt;b style=&quot;border-color: var(--border-color);&quot;&gt;Elasticache&lt;/b&gt;, Redis)" style="shape=cylinder3;whiteSpace=wrap;html=1;boundedLbl=1;backgroundOutline=1;size=15;" vertex="1" parent="1">
          <mxGeometry x="565.5" y="470" width="91" height="108" as="geometry" />
        </mxCell>
        <mxCell id="qK7Ihf6GJC0ydESjj7_p-50" style="edgeStyle=orthogonalEdgeStyle;rounded=0;orthogonalLoop=1;jettySize=auto;html=1;entryX=0.5;entryY=0;entryDx=0;entryDy=0;entryPerimeter=0;" edge="1" parent="1" source="qK7Ihf6GJC0ydESjj7_p-20" target="qK7Ihf6GJC0ydESjj7_p-44">
          <mxGeometry relative="1" as="geometry" />
        </mxCell>
        <mxCell id="qK7Ihf6GJC0ydESjj7_p-51" value="&lt;font style=&quot;font-size: 10px;&quot;&gt;Create stream features&lt;br&gt;(Flink, Spark&amp;nbsp;&lt;b&gt;(?)&lt;/b&gt;)&lt;/font&gt;" style="shape=note;strokeWidth=2;fontSize=14;size=11;whiteSpace=wrap;html=1;fillColor=#fff2cc;strokeColor=#d6b656;fontColor=#666600;" vertex="1" parent="1">
          <mxGeometry x="559.75" y="265" width="105" height="61" as="geometry" />
        </mxCell>
        <mxCell id="qK7Ihf6GJC0ydESjj7_p-52" value="Offline store&lt;br style=&quot;border-color: var(--border-color);&quot;&gt;(x)" style="shape=cylinder3;whiteSpace=wrap;html=1;boundedLbl=1;backgroundOutline=1;size=15;" vertex="1" parent="1">
          <mxGeometry x="81.5" y="474" width="91" height="108" as="geometry" />
        </mxCell>
        <mxCell id="qK7Ihf6GJC0ydESjj7_p-53" style="edgeStyle=orthogonalEdgeStyle;rounded=0;orthogonalLoop=1;jettySize=auto;html=1;entryX=0.5;entryY=0;entryDx=0;entryDy=0;entryPerimeter=0;" edge="1" parent="1" target="qK7Ihf6GJC0ydESjj7_p-52">
          <mxGeometry relative="1" as="geometry">
            <mxPoint x="125.75" y="224" as="sourcePoint" />
            <mxPoint x="125.75" y="366" as="targetPoint" />
          </mxGeometry>
        </mxCell>
        <mxCell id="qK7Ihf6GJC0ydESjj7_p-55" value="&lt;font style=&quot;font-size: 10px;&quot;&gt;Create batch features&lt;br&gt;(&lt;b&gt;Glue,&amp;nbsp;&lt;/b&gt;etc..)&lt;/font&gt;" style="shape=note;strokeWidth=2;fontSize=14;size=11;whiteSpace=wrap;html=1;fillColor=#fff2cc;strokeColor=#d6b656;fontColor=#666600;" vertex="1" parent="1">
          <mxGeometry x="74.5" y="265" width="105" height="61" as="geometry" />
        </mxCell>
        <mxCell id="qK7Ihf6GJC0ydESjj7_p-59" style="edgeStyle=orthogonalEdgeStyle;rounded=0;orthogonalLoop=1;jettySize=auto;html=1;entryX=0;entryY=0;entryDx=105;entryDy=36;entryPerimeter=0;exitX=0.5;exitY=0;exitDx=0;exitDy=0;dashed=1;" edge="1" parent="1" source="qK7Ihf6GJC0ydESjj7_p-42" target="qK7Ihf6GJC0ydESjj7_p-55">
          <mxGeometry relative="1" as="geometry">
            <Array as="points">
              <mxPoint x="360" y="295" />
              <mxPoint x="179" y="295" />
            </Array>
          </mxGeometry>
        </mxCell>
        <mxCell id="qK7Ihf6GJC0ydESjj7_p-61" style="edgeStyle=orthogonalEdgeStyle;rounded=0;orthogonalLoop=1;jettySize=auto;html=1;exitX=0.5;exitY=0;exitDx=0;exitDy=0;entryX=0;entryY=0.5;entryDx=0;entryDy=0;entryPerimeter=0;dashed=1;" edge="1" parent="1" source="qK7Ihf6GJC0ydESjj7_p-42" target="qK7Ihf6GJC0ydESjj7_p-51">
          <mxGeometry relative="1" as="geometry" />
        </mxCell>
        <mxCell id="qK7Ihf6GJC0ydESjj7_p-81" value="&lt;font style=&quot;font-size: 35px;&quot;&gt;Feast&lt;/font&gt;" style="text;html=1;strokeColor=none;fillColor=none;align=center;verticalAlign=middle;whiteSpace=wrap;rounded=0;fontStyle=1" vertex="1" parent="1">
          <mxGeometry x="586" y="745" width="60" height="30" as="geometry" />
        </mxCell>
        <mxCell id="qK7Ihf6GJC0ydESjj7_p-95" value="Feast UI (EC2)&#xa;&#xa;&#xa;&#xa;&#xa;&#xa;" style="group;fillColor=#DAE8FC;strokeColor=#6c8ebf;align=left;fontStyle=1;container=0;" vertex="1" connectable="0" parent="1">
          <mxGeometry x="747" y="695" width="220" height="105" as="geometry" />
        </mxCell>
        <mxCell id="qK7Ihf6GJC0ydESjj7_p-102" value="&lt;b&gt;&amp;nbsp; &amp;nbsp; &amp;nbsp; &amp;nbsp; &amp;nbsp; &amp;nbsp; Feature Server&lt;/b&gt;" style="shape=cube;whiteSpace=wrap;html=1;boundedLbl=1;backgroundOutline=1;darkOpacity=0.05;darkOpacity2=0.1;size=3;" vertex="1" parent="1">
          <mxGeometry x="271" y="665" width="182" height="104" as="geometry" />
        </mxCell>
        <mxCell id="qK7Ihf6GJC0ydESjj7_p-106" value="" style="rounded=0;whiteSpace=wrap;html=1;fillColor=#dae8fc;strokeColor=#6c8ebf;" vertex="1" parent="1">
          <mxGeometry x="379" y="903" width="301" height="192" as="geometry" />
        </mxCell>
        <mxCell id="qK7Ihf6GJC0ydESjj7_p-108" value="&lt;font style=&quot;font-size: 15px;&quot;&gt;&lt;b&gt;Real time client #2&lt;br&gt;&lt;/b&gt;(using SDK)&lt;/font&gt;" style="shape=cube;whiteSpace=wrap;html=1;boundedLbl=1;backgroundOutline=1;darkOpacity=0.05;darkOpacity2=0.1;size=3;" vertex="1" parent="1">
          <mxGeometry x="436" y="954" width="182" height="104" as="geometry" />
        </mxCell>
        <mxCell id="qK7Ihf6GJC0ydESjj7_p-109" value="Feast SDK" style="shape=process;whiteSpace=wrap;html=1;backgroundOutline=1;" vertex="1" parent="1">
          <mxGeometry x="577.75" y="864" width="83.5" height="60" as="geometry" />
        </mxCell>
        <mxCell id="qK7Ihf6GJC0ydESjj7_p-115" value="&lt;div style=&quot;background-color: rgb(41, 36, 35); font-family: Consolas, &amp;quot;Courier New&amp;quot;, monospace; font-weight: normal; line-height: 19px; font-size: 9px;&quot;&gt;&lt;div style=&quot;&quot;&gt;&lt;span style=&quot;color: rgb(247, 122, 106);&quot;&gt;feature_store&lt;/span&gt;&lt;span style=&quot;color: rgb(190, 171, 167);&quot;&gt; &lt;/span&gt;&lt;span style=&quot;color: rgb(247, 217, 121);&quot;&gt;=&lt;/span&gt;&lt;span style=&quot;color: rgb(110, 221, 214);&quot;&gt;FeatureStore&lt;/span&gt;&lt;span style=&quot;color: rgb(206, 181, 176);&quot;&gt;(&lt;/span&gt;&lt;span style=&quot;color: rgb(153, 145, 241);&quot;&gt;RepoConfig&lt;/span&gt;&lt;span style=&quot;color: rgb(206, 181, 176);&quot;&gt;(&lt;/span&gt;&lt;span style=&quot;color: rgb(255, 167, 119);&quot;&gt;feature_server&lt;/span&gt;&lt;span style=&quot;color: rgb(247, 217, 121);&quot;&gt;=&lt;/span&gt;&lt;font style=&quot;font-size: 9px;&quot; color=&quot;#6eddd6&quot;&gt;&quot;&quot;&lt;/font&gt;&lt;span style=&quot;color: rgb(206, 181, 176);&quot;&gt;))&lt;/span&gt;&lt;/div&gt;&lt;/div&gt;" style="text;whiteSpace=wrap;html=1;" vertex="1" parent="1">
          <mxGeometry x="380" y="1060" width="291" height="30" as="geometry" />
        </mxCell>
        <mxCell id="qK7Ihf6GJC0ydESjj7_p-123" value="&lt;font style=&quot;font-size: 10px;&quot;&gt;Feature definitions&lt;br style=&quot;border-color: var(--border-color);&quot;&gt;(CI actions)&lt;/font&gt;" style="ellipse;shape=cloud;whiteSpace=wrap;html=1;" vertex="1" parent="1">
          <mxGeometry x="48" y="628" width="104" height="69.33" as="geometry" />
        </mxCell>
        <mxCell id="qK7Ihf6GJC0ydESjj7_p-124" value="Feature &lt;br&gt;Repository(s)" style="dashed=0;outlineConnect=0;html=1;align=center;labelPosition=center;verticalLabelPosition=bottom;verticalAlign=top;shape=mxgraph.weblogos.github" vertex="1" parent="1">
          <mxGeometry x="97.5" y="681.9999999999999" width="75" height="75" as="geometry" />
        </mxCell>
        <mxCell id="qK7Ihf6GJC0ydESjj7_p-126" style="edgeStyle=orthogonalEdgeStyle;rounded=0;orthogonalLoop=1;jettySize=auto;html=1;exitX=0;exitY=0;exitDx=89.5;exitDy=0;exitPerimeter=0;entryX=0.5;entryY=1;entryDx=0;entryDy=0;entryPerimeter=0;dashed=1;startArrow=classic;startFill=1;" edge="1" parent="1" source="qK7Ihf6GJC0ydESjj7_p-102" target="qK7Ihf6GJC0ydESjj7_p-31">
          <mxGeometry relative="1" as="geometry" />
        </mxCell>
        <mxCell id="qK7Ihf6GJC0ydESjj7_p-127" style="edgeStyle=orthogonalEdgeStyle;rounded=0;orthogonalLoop=1;jettySize=auto;html=1;entryX=0;entryY=0.5;entryDx=0;entryDy=0;entryPerimeter=0;" edge="1" parent="1" source="qK7Ihf6GJC0ydESjj7_p-123" target="qK7Ihf6GJC0ydESjj7_p-31">
          <mxGeometry relative="1" as="geometry" />
        </mxCell>
        <mxCell id="qK7Ihf6GJC0ydESjj7_p-131" value="" style="group" vertex="1" connectable="0" parent="1">
          <mxGeometry x="48" y="903" width="301" height="192" as="geometry" />
        </mxCell>
        <mxCell id="qK7Ihf6GJC0ydESjj7_p-88" value="" style="rounded=0;whiteSpace=wrap;html=1;fillColor=#dae8fc;strokeColor=#6c8ebf;" vertex="1" parent="qK7Ihf6GJC0ydESjj7_p-131">
          <mxGeometry width="301" height="192" as="geometry" />
        </mxCell>
        <mxCell id="qK7Ihf6GJC0ydESjj7_p-89" value="&lt;font style=&quot;font-size: 29px;&quot;&gt;Jeast #1&lt;/font&gt;" style="text;html=1;strokeColor=none;fillColor=none;align=left;verticalAlign=middle;whiteSpace=wrap;rounded=0;fontStyle=1" vertex="1" parent="qK7Ihf6GJC0ydESjj7_p-131">
          <mxGeometry x="6" y="7" width="129" height="30" as="geometry" />
        </mxCell>
        <mxCell id="qK7Ihf6GJC0ydESjj7_p-105" value="&lt;font style=&quot;font-size: 15px;&quot;&gt;&lt;b&gt;Real time client&lt;/b&gt;&lt;br&gt;(without using SDK)&lt;/font&gt;" style="shape=cube;whiteSpace=wrap;html=1;boundedLbl=1;backgroundOutline=1;darkOpacity=0.05;darkOpacity2=0.1;size=3;" vertex="1" parent="qK7Ihf6GJC0ydESjj7_p-131">
          <mxGeometry x="54" y="68" width="182" height="104" as="geometry" />
        </mxCell>
        <mxCell id="qK7Ihf6GJC0ydESjj7_p-132" value="&lt;font style=&quot;font-size: 29px;&quot;&gt;Jeast #2&lt;/font&gt;" style="text;html=1;strokeColor=none;fillColor=none;align=left;verticalAlign=middle;whiteSpace=wrap;rounded=0;fontStyle=1" vertex="1" parent="1">
          <mxGeometry x="383" y="913" width="124" height="30" as="geometry" />
        </mxCell>
        <mxCell id="qK7Ihf6GJC0ydESjj7_p-134" style="edgeStyle=orthogonalEdgeStyle;rounded=0;orthogonalLoop=1;jettySize=auto;html=1;exitX=0.75;exitY=1;exitDx=0;exitDy=0;entryX=0.894;entryY=0.001;entryDx=0;entryDy=0;entryPerimeter=0;startArrow=classic;startFill=1;endArrow=none;endFill=0;strokeColor=default;dashed=1;" edge="1" parent="1" source="qK7Ihf6GJC0ydESjj7_p-109" target="qK7Ihf6GJC0ydESjj7_p-115">
          <mxGeometry relative="1" as="geometry" />
        </mxCell>
        <mxCell id="qK7Ihf6GJC0ydESjj7_p-135" style="edgeStyle=orthogonalEdgeStyle;rounded=0;orthogonalLoop=1;jettySize=auto;html=1;entryX=0;entryY=0;entryDx=92.50000000000001;entryDy=104;entryPerimeter=0;exitX=0.5;exitY=0;exitDx=0;exitDy=0;" edge="1" parent="1" source="qK7Ihf6GJC0ydESjj7_p-106" target="qK7Ihf6GJC0ydESjj7_p-102">
          <mxGeometry relative="1" as="geometry">
            <Array as="points">
              <mxPoint x="529" y="845" />
              <mxPoint x="363" y="845" />
            </Array>
          </mxGeometry>
        </mxCell>
        <mxCell id="qK7Ihf6GJC0ydESjj7_p-139" value="API (via SDK)" style="edgeLabel;html=1;align=center;verticalAlign=middle;resizable=0;points=[];" vertex="1" connectable="0" parent="qK7Ihf6GJC0ydESjj7_p-135">
          <mxGeometry x="-0.1072" y="-1" relative="1" as="geometry">
            <mxPoint as="offset" />
          </mxGeometry>
        </mxCell>
        <mxCell id="qK7Ihf6GJC0ydESjj7_p-136" style="edgeStyle=orthogonalEdgeStyle;rounded=0;orthogonalLoop=1;jettySize=auto;html=1;entryX=0;entryY=0;entryDx=92.50000000000001;entryDy=104;entryPerimeter=0;" edge="1" parent="1" source="qK7Ihf6GJC0ydESjj7_p-88" target="qK7Ihf6GJC0ydESjj7_p-102">
          <mxGeometry relative="1" as="geometry">
            <Array as="points">
              <mxPoint x="192" y="844" />
              <mxPoint x="364" y="844" />
            </Array>
          </mxGeometry>
        </mxCell>
        <mxCell id="qK7Ihf6GJC0ydESjj7_p-137" value="HTTP" style="edgeLabel;html=1;align=center;verticalAlign=middle;resizable=0;points=[];" vertex="1" connectable="0" parent="qK7Ihf6GJC0ydESjj7_p-136">
          <mxGeometry x="-0.3836" relative="1" as="geometry">
            <mxPoint x="47" y="1" as="offset" />
          </mxGeometry>
        </mxCell>
        <mxCell id="qK7Ihf6GJC0ydESjj7_p-141" value="" style="group" vertex="1" connectable="0" parent="1">
          <mxGeometry x="202" y="1232" width="301" height="192" as="geometry" />
        </mxCell>
        <mxCell id="qK7Ihf6GJC0ydESjj7_p-142" value="" style="rounded=0;whiteSpace=wrap;html=1;fillColor=#dae8fc;strokeColor=#6c8ebf;" vertex="1" parent="qK7Ihf6GJC0ydESjj7_p-141">
          <mxGeometry width="301" height="192" as="geometry" />
        </mxCell>
        <mxCell id="qK7Ihf6GJC0ydESjj7_p-143" value="&lt;font style=&quot;font-size: 29px;&quot;&gt;jeast-sdk&lt;/font&gt;" style="text;html=1;strokeColor=none;fillColor=none;align=left;verticalAlign=middle;whiteSpace=wrap;rounded=0;fontStyle=1" vertex="1" parent="qK7Ihf6GJC0ydESjj7_p-141">
          <mxGeometry x="6" y="7" width="140" height="30" as="geometry" />
        </mxCell>
        <mxCell id="qK7Ihf6GJC0ydESjj7_p-146" value="&lt;span style=&quot;font-size: 10px;&quot;&gt;Get online features&lt;/span&gt;" style="shape=note;strokeWidth=2;fontSize=14;size=11;whiteSpace=wrap;html=1;fillColor=#fff2cc;strokeColor=#d6b656;fontColor=#666600;" vertex="1" parent="qK7Ihf6GJC0ydESjj7_p-141">
          <mxGeometry x="35" y="73" width="94" height="27" as="geometry" />
        </mxCell>
        <mxCell id="qK7Ihf6GJC0ydESjj7_p-147" value="&lt;span style=&quot;font-size: 10px;&quot;&gt;Get historical/offline features for training&lt;/span&gt;" style="shape=note;strokeWidth=2;fontSize=14;size=11;whiteSpace=wrap;html=1;fillColor=#fff2cc;strokeColor=#d6b656;fontColor=#666600;" vertex="1" parent="qK7Ihf6GJC0ydESjj7_p-141">
          <mxGeometry x="153" y="69" width="105" height="61" as="geometry" />
        </mxCell>
        <mxCell id="qK7Ihf6GJC0ydESjj7_p-150" style="edgeStyle=orthogonalEdgeStyle;rounded=0;orthogonalLoop=1;jettySize=auto;html=1;exitX=0.5;exitY=0;exitDx=0;exitDy=0;" edge="1" parent="1" source="qK7Ihf6GJC0ydESjj7_p-142" target="qK7Ihf6GJC0ydESjj7_p-88">
          <mxGeometry relative="1" as="geometry" />
        </mxCell>
        <mxCell id="qK7Ihf6GJC0ydESjj7_p-152" value="&lt;span style=&quot;font-size: 10px;&quot;&gt;Is my feature repository(s) living with the OTB &lt;b&gt;Feature Server&lt;/b&gt;&amp;nbsp;(&quot;feast serve&quot;), or with the Jeast API service?&lt;br&gt;&lt;br&gt;I feel like it should be both in a monorepo, or publishing a package of latest definitions then loading them/refreshing them in Jeast may also work (?).&lt;br&gt;&lt;/span&gt;" style="shape=note;strokeWidth=2;fontSize=14;size=11;whiteSpace=wrap;html=1;fillColor=#f8cecc;strokeColor=#b85450;" vertex="1" parent="1">
          <mxGeometry x="-112.5" y="722" width="194" height="156" as="geometry" />
        </mxCell>
        <mxCell id="qK7Ihf6GJC0ydESjj7_p-153" value="" style="shape=curlyBracket;whiteSpace=wrap;html=1;rounded=1;labelPosition=left;verticalLabelPosition=middle;align=right;verticalAlign=middle;" vertex="1" parent="1">
          <mxGeometry x="4" y="903" width="20" height="192" as="geometry" />
        </mxCell>
        <mxCell id="qK7Ihf6GJC0ydESjj7_p-155" value="&lt;h1&gt;Service Layer&lt;/h1&gt;&lt;p&gt;FastAPI client to abstract direct server functions and add business logic.&lt;/p&gt;" style="text;html=1;strokeColor=none;fillColor=none;spacing=5;spacingTop=-20;whiteSpace=wrap;overflow=hidden;rounded=0;" vertex="1" parent="1">
          <mxGeometry x="-185" y="938" width="190" height="120" as="geometry" />
        </mxCell>
        <mxCell id="qK7Ihf6GJC0ydESjj7_p-156" value="" style="shape=curlyBracket;whiteSpace=wrap;html=1;rounded=1;labelPosition=left;verticalLabelPosition=middle;align=right;verticalAlign=middle;" vertex="1" parent="1">
          <mxGeometry x="173" y="1232" width="20" height="192" as="geometry" />
        </mxCell>
        <mxCell id="qK7Ihf6GJC0ydESjj7_p-157" value="&lt;h1&gt;Access Layer&lt;/h1&gt;&lt;p&gt;A published SDK access layer for machine learning applications/backends.&lt;/p&gt;" style="text;html=1;strokeColor=none;fillColor=none;spacing=5;spacingTop=-20;whiteSpace=wrap;overflow=hidden;rounded=0;" vertex="1" parent="1">
          <mxGeometry x="-16" y="1267" width="190" height="120" as="geometry" />
        </mxCell>
        <mxCell id="qK7Ihf6GJC0ydESjj7_p-158" style="edgeStyle=orthogonalEdgeStyle;rounded=0;orthogonalLoop=1;jettySize=auto;html=1;exitX=0.5;exitY=0;exitDx=0;exitDy=0;entryX=0.5;entryY=1;entryDx=0;entryDy=0;" edge="1" parent="1" source="qK7Ihf6GJC0ydESjj7_p-142" target="qK7Ihf6GJC0ydESjj7_p-106">
          <mxGeometry relative="1" as="geometry" />
        </mxCell>
        <mxCell id="qK7Ihf6GJC0ydESjj7_p-96" value="Reverse proxy" style="whiteSpace=wrap;html=1;aspect=fixed;container=0;" vertex="1" parent="1">
          <mxGeometry x="769" y="720" width="60" height="60" as="geometry" />
        </mxCell>
        <mxCell id="qK7Ihf6GJC0ydESjj7_p-97" value="Feast Core server" style="whiteSpace=wrap;html=1;aspect=fixed;container=0;" vertex="1" parent="1">
          <mxGeometry x="859" y="710" width="60" height="60" as="geometry" />
        </mxCell>
        <mxCell id="qK7Ihf6GJC0ydESjj7_p-98" style="edgeStyle=orthogonalEdgeStyle;rounded=0;orthogonalLoop=1;jettySize=auto;html=1;entryX=-0.008;entryY=0.67;entryDx=0;entryDy=0;entryPerimeter=0;" edge="1" parent="1" source="qK7Ihf6GJC0ydESjj7_p-96" target="qK7Ihf6GJC0ydESjj7_p-97">
          <mxGeometry relative="1" as="geometry" />
        </mxCell>
        <mxCell id="qK7Ihf6GJC0ydESjj7_p-99" value="Feast Core server" style="whiteSpace=wrap;html=1;aspect=fixed;container=0;" vertex="1" parent="1">
          <mxGeometry x="869" y="720" width="60" height="60" as="geometry" />
        </mxCell>
        <mxCell id="qK7Ihf6GJC0ydESjj7_p-100" value="Feast &lt;br&gt;OTB UI" style="whiteSpace=wrap;html=1;aspect=fixed;container=0;" vertex="1" parent="1">
          <mxGeometry x="879" y="730" width="60" height="60" as="geometry" />
        </mxCell>
        <mxCell id="qK7Ihf6GJC0ydESjj7_p-170" value="" style="sketch=0;outlineConnect=0;fontColor=#232F3E;gradientColor=none;strokeColor=#ffffff;fillColor=#232F3E;dashed=0;verticalLabelPosition=middle;verticalAlign=bottom;align=center;html=1;whiteSpace=wrap;fontSize=10;fontStyle=1;spacing=3;shape=mxgraph.aws4.productIcon;prIcon=mxgraph.aws4.eks;" vertex="1" parent="1">
          <mxGeometry x="285" y="693" width="53" height="52" as="geometry" />
        </mxCell>
        <mxCell id="qK7Ihf6GJC0ydESjj7_p-173" value="Application backend" style="shape=cube;whiteSpace=wrap;html=1;boundedLbl=1;backgroundOutline=1;darkOpacity=0.05;darkOpacity2=0.1;size=3;" vertex="1" parent="1">
          <mxGeometry x="336" y="1684" width="100.5" height="67" as="geometry" />
        </mxCell>
        <mxCell id="qK7Ihf6GJC0ydESjj7_p-174" style="edgeStyle=orthogonalEdgeStyle;rounded=0;orthogonalLoop=1;jettySize=auto;html=1;entryX=0.55;entryY=0.95;entryDx=0;entryDy=0;entryPerimeter=0;dashed=1;startArrow=classic;startFill=1;endArrow=classic;endFill=1;" edge="1" parent="1" source="qK7Ihf6GJC0ydESjj7_p-173" target="qK7Ihf6GJC0ydESjj7_p-176">
          <mxGeometry relative="1" as="geometry" />
        </mxCell>
        <mxCell id="qK7Ihf6GJC0ydESjj7_p-175" value="" style="edgeStyle=orthogonalEdgeStyle;rounded=0;orthogonalLoop=1;jettySize=auto;html=1;dashed=1;" edge="1" parent="1" target="qK7Ihf6GJC0ydESjj7_p-176">
          <mxGeometry relative="1" as="geometry">
            <mxPoint x="213" y="1574" as="sourcePoint" />
            <mxPoint x="586" y="1572.67" as="targetPoint" />
          </mxGeometry>
        </mxCell>
        <mxCell id="qK7Ihf6GJC0ydESjj7_p-176" value="Model serv" style="ellipse;shape=cloud;whiteSpace=wrap;html=1;" vertex="1" parent="1">
          <mxGeometry x="320" y="1534" width="120" height="80" as="geometry" />
        </mxCell>
        <mxCell id="qK7Ihf6GJC0ydESjj7_p-177" value="Model training" style="ellipse;shape=cloud;whiteSpace=wrap;html=1;" vertex="1" parent="1">
          <mxGeometry x="156" y="1614" width="120" height="80" as="geometry" />
        </mxCell>
      </root>
    </mxGraphModel>
  </diagram>
</mxfile>
